#define fup_width 23
#define fup_height 17
static char fup_bits[] = {
 0x00,0x00,0x00,0xf0,0x03,0x00,0x08,0x04,0x00,0x04,0x08,0x00,0xfe,0xff,0x3f,
 0x02,0x00,0x20,0x42,0x00,0x20,0xe2,0x00,0x20,0xf2,0x01,0x20,0x42,0x00,0x20,
 0x42,0x00,0x20,0x42,0x00,0x20,0xc2,0xff,0x20,0x02,0x00,0x20,0x02,0x00,0x20,
 0xfe,0xff,0x3f,0x00,0x00,0x00};
