<?xml version="1.0" encoding="UTF-8"?>
<!DOCTYPE svg PUBLIC "-//W3C//DTD SVG 1.1//EN" "http://www.w3.org/Graphics/SVG/1.1/DTD/svg11.dtd">
<svg version="1.2" width="210.06mm" height="50.8mm" viewBox="0 0 21006 5080" preserveAspectRatio="xMidYMid" fill-rule="evenodd" stroke-width="28.222" stroke-linejoin="round" xmlns="http://www.w3.org/2000/svg" xmlns:ooo="http://xml.openoffice.org/svg/export" xmlns:xlink="http://www.w3.org/1999/xlink" xmlns:presentation="http://sun.com/xmlns/staroffice/presentation" xmlns:smil="http://www.w3.org/2001/SMIL20/" xmlns:anim="urn:oasis:names:tc:opendocument:xmlns:animation:1.0" xml:space="preserve">
 <defs class="ClipPathGroup">
  <clipPath id="presentation_clip_path" clipPathUnits="userSpaceOnUse">
   <rect x="0" y="0" width="21006" height="5080"/>
  </clipPath>
  <clipPath id="presentation_clip_path_shrink" clipPathUnits="userSpaceOnUse">
   <rect x="21" y="5" width="20964" height="5070"/>
  </clipPath>
 </defs>
 <defs class="TextShapeIndex">
  <g ooo:slide="id1" ooo:id-list="id3 id4 id5 id6 id7 id8"/>
 </defs>
 <defs class="EmbeddedBulletChars">
  <g id="bullet-char-template-57356" transform="scale(0.00048828125,-0.00048828125)">
   <path d="M 580,1141 L 1163,571 580,0 -4,571 580,1141 Z"/>
  </g>
  <g id="bullet-char-template-57354" transform="scale(0.00048828125,-0.00048828125)">
   <path d="M 8,1128 L 1137,1128 1137,0 8,0 8,1128 Z"/>
  </g>
  <g id="bullet-char-template-10146" transform="scale(0.00048828125,-0.00048828125)">
   <path d="M 174,0 L 602,739 174,1481 1456,739 174,0 Z M 1358,739 L 309,1346 659,739 1358,739 Z"/>
  </g>
  <g id="bullet-char-template-10132" transform="scale(0.00048828125,-0.00048828125)">
   <path d="M 2015,739 L 1276,0 717,0 1260,543 174,543 174,936 1260,936 717,1481 1274,1481 2015,739 Z"/>
  </g>
  <g id="bullet-char-template-10007" transform="scale(0.00048828125,-0.00048828125)">
   <path d="M 0,-2 C -7,14 -16,27 -25,37 L 356,567 C 262,823 215,952 215,954 215,979 228,992 255,992 264,992 276,990 289,987 310,991 331,999 354,1012 L 381,999 492,748 772,1049 836,1024 860,1049 C 881,1039 901,1025 922,1006 886,937 835,863 770,784 769,783 710,716 594,584 L 774,223 C 774,196 753,168 711,139 L 727,119 C 717,90 699,76 672,76 641,76 570,178 457,381 L 164,-76 C 142,-110 111,-127 72,-127 30,-127 9,-110 8,-76 1,-67 -2,-52 -2,-32 -2,-23 -1,-13 0,-2 Z"/>
  </g>
  <g id="bullet-char-template-10004" transform="scale(0.00048828125,-0.00048828125)">
   <path d="M 285,-33 C 182,-33 111,30 74,156 52,228 41,333 41,471 41,549 55,616 82,672 116,743 169,778 240,778 293,778 328,747 346,684 L 369,508 C 377,444 397,411 428,410 L 1163,1116 C 1174,1127 1196,1133 1229,1133 1271,1133 1292,1118 1292,1087 L 1292,965 C 1292,929 1282,901 1262,881 L 442,47 C 390,-6 338,-33 285,-33 Z"/>
  </g>
  <g id="bullet-char-template-9679" transform="scale(0.00048828125,-0.00048828125)">
   <path d="M 813,0 C 632,0 489,54 383,161 276,268 223,411 223,592 223,773 276,916 383,1023 489,1130 632,1184 813,1184 992,1184 1136,1130 1245,1023 1353,916 1407,772 1407,592 1407,412 1353,268 1245,161 1136,54 992,0 813,0 Z"/>
  </g>
  <g id="bullet-char-template-8226" transform="scale(0.00048828125,-0.00048828125)">
   <path d="M 346,457 C 273,457 209,483 155,535 101,586 74,649 74,723 74,796 101,859 155,911 209,963 273,989 346,989 419,989 480,963 531,910 582,859 608,796 608,723 608,648 583,586 532,535 482,483 420,457 346,457 Z"/>
  </g>
  <g id="bullet-char-template-8211" transform="scale(0.00048828125,-0.00048828125)">
   <path d="M -4,459 L 1135,459 1135,606 -4,606 -4,459 Z"/>
  </g>
  <g id="bullet-char-template-61548" transform="scale(0.00048828125,-0.00048828125)">
   <path d="M 173,740 C 173,903 231,1043 346,1159 462,1274 601,1332 765,1332 928,1332 1067,1274 1183,1159 1299,1043 1357,903 1357,740 1357,577 1299,437 1183,322 1067,206 928,148 765,148 601,148 462,206 346,322 231,437 173,577 173,740 Z"/>
  </g>
 </defs>
 <g>
  <g id="id2" class="Master_Slide">
   <g id="bg-id2" class="Background"/>
   <g id="bo-id2" class="BackgroundObjects"/>
  </g>
 </g>
 <g class="SlideGroup">
  <g>
   <g id="container-id1">
    <g id="id1" class="Slide" clip-path="url(#presentation_clip_path)">
     <g class="Page">
      <g class="Group">
       <g class="com.sun.star.drawing.ClosedBezierShape">
        <g id="id3">
         <rect class="BoundingBox" stroke="none" fill="none" x="18741" y="2416" width="609" height="320"/>
         <path fill="rgb(178,178,178)" stroke="none" d="M 18742,2417 L 19201,2417 19201,2417 19201,2417 19201,2417 19201,2417 C 19201,2417 19345,2491 19348,2563 19351,2635 19201,2734 19201,2734 L 19201,2734 18742,2734 18742,2417 Z"/>
         <path fill="none" stroke="rgb(52,101,164)" d="M 18742,2417 L 19201,2417 19201,2417 19201,2417 19201,2417 19201,2417 C 19201,2417 19345,2491 19348,2563 19351,2635 19201,2734 19201,2734 L 19201,2734 18742,2734 18742,2417 Z"/>
        </g>
       </g>
       <g class="com.sun.star.drawing.ClosedBezierShape">
        <g id="id4">
         <rect class="BoundingBox" stroke="none" fill="none" x="2269" y="2269" width="6988" height="638"/>
         <path fill="rgb(221,221,221)" stroke="none" d="M 3843,2344 L 9255,2270 9255,2905 3850,2845 C 3850,2845 2270,2845 2270,2587 2270,2329 3843,2344 3843,2344 Z"/>
         <path fill="none" stroke="rgb(52,101,164)" d="M 3843,2344 L 9255,2270 9255,2905 3850,2845 C 3850,2845 2270,2845 2270,2587 2270,2329 3843,2344 3843,2344 Z"/>
        </g>
       </g>
       <g class="com.sun.star.drawing.CustomShape">
        <g id="id5">
         <rect class="BoundingBox" stroke="none" fill="none" x="2904" y="2524" width="6353" height="159"/>
         <path fill="rgb(153,153,153)" stroke="none" d="M 6080,2681 L 2905,2681 2905,2525 9255,2525 9255,2681 6080,2681 Z"/>
         <path fill="none" stroke="rgb(52,101,164)" d="M 6080,2681 L 2905,2681 2905,2525 9255,2525 9255,2681 6080,2681 Z"/>
        </g>
       </g>
       <g class="com.sun.star.drawing.ClosedBezierShape">
        <g id="id6">
         <rect class="BoundingBox" stroke="none" fill="none" x="9254" y="2269" width="9528" height="638"/>
         <path fill="rgb(52,101,164)" stroke="none" d="M 9255,2270 L 18462,2270 18462,2270 18462,2270 C 18462,2270 18780,2270 18780,2587 18780,2904 18462,2905 18462,2905 L 9255,2905 9255,2270 Z"/>
         <path fill="none" stroke="rgb(52,101,164)" d="M 9255,2270 L 18462,2270 18462,2270 18462,2270 C 18462,2270 18780,2270 18780,2587 18780,2904 18462,2905 18462,2905 L 9255,2905 9255,2270 Z"/>
        </g>
       </g>
       <g class="com.sun.star.drawing.CustomShape">
        <g id="id7">
         <rect class="BoundingBox" stroke="none" fill="none" x="15736" y="2439" width="1251" height="301"/>
         <path fill="rgb(128,128,128)" stroke="none" d="M 16361,2738 L 15737,2738 15737,2440 16985,2440 16985,2738 16361,2738 Z"/>
         <path fill="none" stroke="rgb(52,101,164)" d="M 16361,2738 L 15737,2738 15737,2440 16985,2440 16985,2738 16361,2738 Z"/>
        </g>
       </g>
       <g class="com.sun.star.drawing.ClosedBezierShape">
        <g id="id8">
         <rect class="BoundingBox" stroke="none" fill="none" x="12497" y="1947" width="5417" height="325"/>
         <path fill="rgb(52,101,164)" stroke="none" d="M 12504,2270 C 12487,2267 12496,2200 12662,2139 12761,2103 12998,2072 13114,2053 13379,1993 14091,1953 14091,1953 L 17266,1953 C 17266,1953 17727,1918 17839,2030 17951,2142 17901,2270 17901,2270 L 16314,2270 C 16314,2270 16462,2251 16081,2179 15700,2107 14444,2143 14007,2179 13570,2215 13456,2270 13456,2270 L 12504,2270 Z"/>
         <path fill="none" stroke="rgb(52,101,164)" d="M 12504,2270 C 12487,2267 12496,2200 12662,2139 12761,2103 12998,2072 13114,2053 13379,1993 14091,1953 14091,1953 L 17266,1953 C 17266,1953 17727,1918 17839,2030 17951,2142 17901,2270 17901,2270 L 16314,2270 C 16314,2270 16462,2251 16081,2179 15700,2107 14444,2143 14007,2179 13570,2215 13456,2270 13456,2270 L 12504,2270 Z"/>
        </g>
       </g>
      </g>
     </g>
    </g>
   </g>
  </g>
 </g>
</svg>