<?xml version="1.0" encoding="UTF-8" standalone="no"?>
<!DOCTYPE svg PUBLIC "-//W3C//DTD SVG 1.0//EN" "http://www.w3.org/TR/2001/PR-SVG-20010719/DTD/svg10.dtd">
<svg width="21cm" height="14.4cm" viewBox="-5 -5 330 220" xmlns="http://www.w3.org/2000/svg" xmlns:xlink="http://www.w3.org/1999/xlink">
  <style type="text/css">
    .link {stroke: #000000; stroke-width: 2;}

    .sup.label {font-size: 27px; fill: #000000; text-anchor: middle; font-family: monospace; font-style: normal; font-weight: bold;}
    .sup.body {fill: #ddddff; fill-opacity: 1; stroke-width: 3; stroke: #000000;}

    .child.label {font-size: 27px; fill: #000000; text-anchor: middle; font-family: monospace; font-style: normal; font-weight: bold;}
    .child.label.index {font-size: 12px;}
    .child.body {fill: #eeeeee; fill-opacity: 1; stroke-width: 3; stroke: #000000;}
    .child.body.terminated {fill: #ff8888;}
    .child.body.sup-terminated {fill: #ffaa00;}
    .child.body.restarted {stroke: #00aa00;}

    .ellipsis {fill: #000000; fill-opacity: 1; stroke: none;}
    .ellipsis.sup-terminated {fill: #ffaa00;}
    .ellipsis.restarted {stroke: #00aa00;}

    .arrow {stroke-width: 2; stroke-linecap: round;}
    .arrow.shutdown {stroke: #ffaa00;}
    .arrow.restart {stroke: #00aa00;}

    .divider {stroke: #000000; stroke-width: 0.2; stroke-dasharray: 1 3;}

    .legend.label {font-size: 10px; fill: #000000; font-family: sans-serif; font-style: normal; font-weight: normal;}
    .legend.body.terminated {fill: #ff8888; fill-opacity: 1; stroke: none;}
    .legend.body.sup-terminated {fill: #ffaa00; fill-opacity: 1; stroke: none;}
    .legend.body.restarted {fill: none; fill-opacity: 1; stroke: #00aa00; stroke-width: 2;}
  </style>
  <!-- illustration for the rest_for_one strategy -->

  <!-- linking lines -->
  <line class="link" x1="140" y1="40" x2="20" y2="100" />
  <line class="link" x1="140" y1="40" x2="100" y2="100" />
  <line class="link" x1="140" y1="40" x2="180" y2="100" />
  <line class="link" x1="140" y1="40" x2="300" y2="100" />

  <!-- supervisor -->
  <g transform="translate(140 20)">
    <rect class="sup body" x="-20" y="-20" width="40" height="40"/>
    <text class="sup label" x="0" y="8.5">S</text>
  </g>

  <!-- child process 1 -->
  <g transform="translate(20 100)">
    <ellipse class="child body" cx="0" cy="0" rx="20" ry="20"/>
    <text><tspan class="child label" x="0" y="8.5">P</tspan><tspan class="child label index" x="8" y="12">1</tspan></text>
  </g>

  <!-- child process 2 -->
  <g transform="translate(100 100)">
    <ellipse class="child body terminated restarted" cx="0" cy="0" rx="20" ry="20"/>
    <text><tspan class="child label" x="0" y="8.5">P</tspan><tspan class="child label index" x="8" y="12">2</tspan></text>
  </g>

  <!-- child process 3 -->
  <g transform="translate(180 100)">
    <ellipse class="child body sup-terminated restarted" cx="0" cy="0" rx="20" ry="20"/>
    <text><tspan class="child label" x="0" y="8.5">P</tspan><tspan class="child label index" x="8" y="12">3</tspan></text>
  </g>

  <!-- ... -->
  <g class="ellipsis sup-terminated restarted" transform="translate(240 100)">
    <ellipse cx="-15" cy="0" rx="2" ry="2"/>
    <ellipse cx="0" cy="0" rx="2" ry="2"/>
    <ellipse cx="15" cy="0" rx="2" ry="2"/>
  </g>

  <!-- child process n -->
  <g transform="translate(300 100)">
    <ellipse class="child body sup-terminated restarted" cx="0" cy="0" rx="20" ry="20"/>
    <text><tspan class="child label" x="0" y="8.5">P</tspan><tspan class="child label index" x="8" y="12">n</tspan></text>
  </g>

  <!-- shutdown order arrow -->
  <g class="arrow shutdown" transform="translate(0 130)">
    <line x1="300" y1="0" x2="180" y2="0" />
    <line x1="180" y1="0" x2="190" y2="-3" />
    <line x1="180" y1="0" x2="190" y2="3" />
  </g>

  <!-- restart order arrow -->
  <g class="arrow restart" transform="translate(0 140)">
    <line x1="100" y1="0" x2="300" y2="0" />
    <line x1="300" y1="0" x2="290" y2="-3" />
    <line x1="300" y1="0" x2="290" y2="3" />
  </g>

  <!-- divider -->
  <line class="divider" transform="translate(0 150)" x1="-5" y1="0" x2="330" y2="0" />

  <!-- legend -->
  <g transform="translate(5 155)">
    <g transform="translate(0 10)">
        <ellipse class="legend body terminated" cx="0" cy="0" rx="5" ry="5"/>
        <text class="legend label" x="10" y="3">Terminated process</text>
    </g>
    <g transform="translate(0 22)">
        <ellipse class="legend body sup-terminated" cx="0" cy="0" rx="5" ry="5"/>
        <text class="legend label" x="10" y="3">Process terminated by the supervisor</text>
    </g>
    <g transform="translate(0 34)">
      <ellipse class="legend body restarted" cx="0" cy="0" rx="5" ry="5"/>
      <text font-size="10" style="fill: #000000; font-family: sans-serif; font-style: normal; font-weight: normal" x="10" y="3">Process restarted by the supervisor</text>
    </g>
    <g transform="translate(0 46)">
      <g class="arrow shutdown" style="stroke-width: 1.5">
        <line x1="5" y1="0" x2="-5" y2="0" />
        <line x1="-5" y1="0" x2="0" y2="-2" />
        <line x1="-5" y1="0" x2="0" y2="2" />
      </g>
      <text class="legend label" x="10" y="3">Shutdown order</text>
    </g>
    <g transform="translate(0 58)">
      <g class="arrow restart" style="stroke-width: 1.5">
        <line x1="-5" y1="0" x2="5" y2="0" />
        <line x1="5" y1="0" x2="0" y2="-2" />
        <line x1="5" y1="0" x2="0" y2="2" />
      </g>
      <text class="legend label" x="10" y="3">Restart order</text>
    </g>
  </g>
</svg>
