#define help_width 20
#define help_height 20
static unsigned char help_bits[] = {
   0x00, 0x00, 0x00, 0x00, 0x00, 0x00, 0x00, 0x00, 0x00, 0x00, 0x00, 0x00,
   0x00, 0x00, 0x00, 0x00, 0x3c, 0x00, 0x00, 0xff, 0x00, 0x80, 0xe7, 0x01,
   0x80, 0xc3, 0x01, 0x80, 0xc3, 0x01, 0x00, 0xe3, 0x00, 0x00, 0x70, 0x00,
   0x00, 0x38, 0x00, 0x00, 0x1c, 0x00, 0x00, 0x1c, 0x00, 0x00, 0x00, 0x00,
   0x00, 0x1c, 0x00, 0x00, 0x1c, 0x00, 0x00, 0x00, 0x00, 0x00, 0x00, 0x00};
