#define no_sort_width 20
#define no_sort_height 20
static unsigned char no_sort_bits[] = {
   0x00, 0x00, 0x00, 0x00, 0x00, 0x00, 0x00, 0x00, 0x00, 0x00, 0x00, 0x00,
   0x00, 0x00, 0x00, 0x00, 0x00, 0x00, 0x00, 0x00, 0x02, 0x00, 0x00, 0x02,
   0x20, 0x00, 0x02, 0x20, 0x00, 0x02, 0x20, 0x08, 0x02, 0x20, 0x08, 0x02,
   0x20, 0x48, 0x02, 0x20, 0x48, 0x02, 0x20, 0x49, 0x02, 0x20, 0x49, 0x02,
   0x20, 0x49, 0x02, 0x20, 0x49, 0x02, 0x00, 0x00, 0x00, 0x00, 0x00, 0x00};
