#define open_width 20
#define open_height 20
static unsigned char open_bits[] = {
   0x00, 0x00, 0x00, 0x00, 0x00, 0x00, 0x00, 0x00, 0x00, 0x00, 0x00, 0x00,
   0x00, 0x00, 0x00, 0x00, 0x38, 0x00, 0x00, 0xc0, 0x00, 0x00, 0x00, 0x05,
   0xe0, 0x00, 0x06, 0xf0, 0x1f, 0x07, 0xf0, 0x3f, 0x00, 0xf0, 0x3f, 0x00,
   0xf0, 0x3f, 0x00, 0xf0, 0xff, 0x03, 0xf0, 0x00, 0x01, 0x70, 0x80, 0x00,
   0x30, 0x40, 0x00, 0xf0, 0x3f, 0x00, 0x00, 0x00, 0x00, 0x00, 0x00, 0x00};
