#define poll2_width 20
#define poll2_height 20
static unsigned char poll2_bits[] = {
   0x00, 0x00, 0x00, 0x00, 0x00, 0x00, 0x00, 0x00, 0x00, 0x00, 0x00, 0x00,
   0x00, 0x00, 0x00, 0x00, 0x1f, 0x00, 0xc0, 0x7f, 0x00, 0xe0, 0xff, 0x00,
   0xe0, 0xf1, 0x00, 0xf0, 0xe0, 0x01, 0x70, 0xf8, 0x07, 0x70, 0xf0, 0x03,
   0x70, 0xe0, 0x01, 0xf0, 0xc0, 0x00, 0xe0, 0x01, 0x00, 0xe0, 0x7f, 0x00,
   0xc0, 0x3f, 0x00, 0x00, 0x1f, 0x00, 0x00, 0x00, 0x00, 0x00, 0x00, 0x00};
