#define search2_width 20
#define search2_height 20
static unsigned char search2_bits[] = {
   0x00, 0x00, 0x00, 0x00, 0x00, 0x00, 0x00, 0x00, 0x00, 0x00, 0x00, 0x00,
   0xc0, 0xe1, 0x00, 0xc0, 0xe1, 0x00, 0xe0, 0xf3, 0x01, 0x20, 0x93, 0x01,
   0xf0, 0xff, 0x03, 0xe8, 0xdd, 0x07, 0xe8, 0xdd, 0x07, 0xe8, 0xdd, 0x07,
   0xe8, 0xdd, 0x07, 0xe8, 0xdf, 0x07, 0xe8, 0xd3, 0x07, 0xf8, 0xf3, 0x07,
   0xe8, 0x40, 0x07, 0xe8, 0x40, 0x07, 0xf8, 0xc0, 0x07, 0x00, 0x00, 0x00};
