#define sort_width 20
#define sort_height 20
static unsigned char sort_bits[] = {
   0x00, 0x00, 0x00, 0x00, 0x00, 0x00, 0x00, 0x00, 0x00, 0x00, 0x00, 0x00,
   0x00, 0x00, 0x00, 0x00, 0x00, 0x00, 0x00, 0x00, 0x02, 0x00, 0x00, 0x02,
   0x00, 0x40, 0x02, 0x00, 0x40, 0x02, 0x00, 0x48, 0x02, 0x00, 0x48, 0x02,
   0x00, 0x49, 0x02, 0x00, 0x49, 0x02, 0x20, 0x49, 0x02, 0x20, 0x49, 0x02,
   0x20, 0x49, 0x02, 0x20, 0x49, 0x02, 0x00, 0x00, 0x00, 0x00, 0x00, 0x00};
