#define sort_reverse_width 20
#define sort_reverse_height 20
static unsigned char sort_reverse_bits[] = {
   0x00, 0x00, 0x00, 0x00, 0x00, 0x00, 0x00, 0x00, 0x00, 0x00, 0x00, 0x00,
   0x00, 0x00, 0x00, 0x00, 0x00, 0x00, 0x20, 0x00, 0x00, 0x20, 0x00, 0x00,
   0x20, 0x01, 0x00, 0x20, 0x01, 0x00, 0x20, 0x09, 0x00, 0x20, 0x09, 0x00,
   0x20, 0x49, 0x00, 0x20, 0x49, 0x00, 0x20, 0x49, 0x02, 0x20, 0x49, 0x02,
   0x20, 0x49, 0x02, 0x20, 0x49, 0x02, 0x00, 0x00, 0x00, 0x00, 0x00, 0x00};
