/* XPM */
static char * artprov_xpm[] = {
"16 16 4 1",
" 	c None",
".	c #000000",
"+	c #0E2CEF",
"@	c #FFFFFF",
"        .       ",
"       . .      ",
"      .   .     ",
"++++++++++++++++",
"+@@@@@@@@@@@@@@+",
"+@@@@@@++@@@@@@+",
"+@@@@@@@@@@@@@@+",
"+@@@@@+++@@@@@@+",
"+@@@@@@++@@@@@@+",
"+@@@@@@++@@@@@@+",
"+@@@@@@++@@@@@@+",
"+@@@@@++++@@@@@+",
"+@@@@@@@@@@@@@@+",
"++++++++++++++++",
"                ",
"                "};
