/* XPM */
static char * controls_xpm[] = {
"16 16 6 1",
" 	c None",
".	c #000000",
"+	c #808080",
"@	c #0000FF",
"#	c #FFFFFF",
"$	c #0E2CEF",
"                ",
"                ",
"                ",
"                ",
"                ",
"................",
".++++++++++++++.",
".+@@@@@@@@####+.",
".+$$$$$$$$####+.",
".+$$$$$$$$####+.",
".++++++++++++++.",
"................",
"                ",
"                ",
"                ",
"                "};
