/* XPM */
static char * custclas_xpm[] = {
"16 16 7 1",
" 	c None",
".	c #EBF70E",
"+	c #000000",
"@	c #808080",
"#	c #0000FF",
"$	c #FFFFFF",
"%	c #0E2CEF",
"                ",
"   .            ",
"   .            ",
" . . .          ",
"  ...           ",
"...+....++++++++",
"+@...@@@@@@@@@@+",
"+.#.#.####$$$$@+",
"+@%.%%%%%%$$$$@+",
"+@%.%%%%%%$$$$@+",
"+@@@@@@@@@@@@@@+",
"++++++++++++++++",
"                ",
"                ",
"                ",
"                "};
