/* XPM */
static char * derivdlg_xpm[] = {
"16 16 6 1",
" 	c None",
".	c #EBF70E",
"+	c #000000",
"@	c #808080",
"#	c #0000FF",
"$	c #FFFFFF",
"   .            ",
"+++.++++++++++++",
"+.@.@.@@@@@@@@@+",
"+@...#########@+",
"...@....@@@@@@@+",
"+@...$$$$$$$$$@+",
"+.$.@.@@@@@@$$@+",
"+@$.@@@@@@@@$$@+",
"+@$.$$$$$$$$$$@+",
"+@$$$$$$$$$$$$@+",
"+@$$$$@@@@$$$$@+",
"+@$$$$@@@@$$$$@+",
"+@$$$$$$$$$$$$@+",
"+@@@@@@@@@@@@@@+",
"++++++++++++++++",
"                "};
