/* XPM */
static char * stop_xpm[] = {
"32 32 129 2",
"  	c None",
". 	c #C9CBC8",
"+ 	c #C3C4C1",
"@ 	c #C4C6C3",
"# 	c #C1C3C0",
"$ 	c #C3C5C2",
"% 	c #C3C3C0",
"& 	c #C4C4C1",
"* 	c #C2C4C1",
"= 	c #C6C6C3",
"- 	c #C0C2BF",
"; 	c #C7C9C6",
"> 	c #636662",
", 	c #201F1B",
"' 	c #242621",
") 	c #171B16",
"! 	c #1F221E",
"~ 	c #1E1B17",
"{ 	c #222621",
"] 	c #221F1B",
"^ 	c #1B1F1A",
"/ 	c #292622",
"( 	c #141713",
"_ 	c #5D605C",
": 	c #050904",
"< 	c #60635F",
"[ 	c #0F0904",
"} 	c #B50701",
"| 	c #E40600",
"1 	c #850702",
"2 	c #C8CAC7",
"3 	c #616460",
"4 	c #060A05",
"5 	c #0E0904",
"6 	c #A30701",
"7 	c #FF0600",
"8 	c #BB0701",
"9 	c #0C0904",
"0 	c #BC0701",
"a 	c #8E0702",
"b 	c #646763",
"c 	c #676A66",
"d 	c #AB0701",
"e 	c #FC0600",
"f 	c #9B0702",
"g 	c #5F625E",
"h 	c #0B0904",
"i 	c #B30701",
"j 	c #686B67",
"k 	c #5B5E5A",
"l 	c #090904",
"m 	c #9D0702",
"n 	c #FA0A04",
"o 	c #6C6F6B",
"p 	c #BABCB9",
"q 	c #AD0701",
"r 	c #F91B15",
"s 	c #E35651",
"t 	c #ED0600",
"u 	c #FE0802",
"v 	c #E95753",
"w 	c #EE211B",
"x 	c #CC6A66",
"y 	c #DA3630",
"z 	c #950702",
"A 	c #323631",
"B 	c #EC0600",
"C 	c #FE0903",
"D 	c #CAC8C5",
"E 	c #F23732",
"F 	c #EA524E",
"G 	c #CFB4B1",
"H 	c #FB150F",
"I 	c #E11D18",
"J 	c #EB4D48",
"K 	c #E85A55",
"L 	c #F62621",
"M 	c #F42D27",
"N 	c #E60903",
"O 	c #F2241E",
"P 	c #FA140E",
"Q 	c #EE433E",
"R 	c #EE1C16",
"S 	c #F50600",
"T 	c #FD0D07",
"U 	c #E6625D",
"V 	c #C48581",
"W 	c #F20B05",
"X 	c #CD6762",
"Y 	c #F03C36",
"Z 	c #FD0F09",
"` 	c #EF302A",
" .	c #F62822",
"..	c #E56661",
"+.	c #FC100A",
"@.	c #FA1A14",
"#.	c #F91C16",
"$.	c #F62823",
"%.	c #F91D17",
"&.	c #E70600",
"*.	c #F03E39",
"=.	c #FD0E08",
"-.	c #DB534E",
";.	c #BEC0BD",
">.	c #10140F",
",.	c #FD0C06",
"'.	c #F90802",
").	c #D26A66",
"!.	c #FB1510",
"~.	c #FF0701",
"{.	c #FE0600",
"].	c #110904",
"^.	c #C50701",
"/.	c #8A0702",
"(.	c #1A0904",
"_.	c #BF0701",
":.	c #B60701",
"<.	c #A40701",
"[.	c #BA0701",
"}.	c #080C07",
"|.	c #1B0904",
"1.	c #C70701",
"2.	c #FD0600",
"3.	c #920702",
"4.	c #70736F",
"5.	c #380803",
"6.	c #340803",
"7.	c #5C5F5B",
"8.	c #BCBEBB",
". . . . . . . . . . + @ # $ $ % @ & * = - * . . . . . . . . . . ",
". . . . . . . . ; > , ' ) ! ! ~ { ] ^ / ( ^ > ; . . . . . . . . ",
". . . . . . . . _ : : : : : : : : : : : : : : _ . . . . . . . . ",
". . . . . . . < : [ } | | | | | | | | | | 1 [ : < . . . . . . . ",
". . . . . 2 3 4 5 6 7 7 7 7 7 7 7 7 7 7 7 7 8 9 4 3 2 . . . . . ",
". . . . 2 > : : 0 7 7 7 7 7 7 7 7 7 7 7 7 7 7 a : : > 2 . . . . ",
". . . . b : : 6 7 7 7 7 7 7 7 7 7 7 7 7 7 7 7 7 a [ : b . . . . ",
". . . c : 5 d e 7 7 7 7 7 7 7 7 7 7 7 7 7 7 7 7 7 f 5 : c . . . ",
". - g 4 h f 7 7 7 7 7 7 7 7 7 7 7 7 7 7 7 7 7 7 7 7 i h 4 j . . ",
"$ k : l m 7 7 7 7 7 7 7 7 7 7 7 7 7 n 7 7 7 7 7 7 7 7 7 l : o . ",
"p : : q 7 r . . s t . . . . . . u v . . w 7 7 . . . x y z : A . ",
"p : : B C . . . D E . . . . . . F . . . . 7 7 . . . . G B : A . ",
"p : : B H . . I . . J K . . K L . . . . . . 7 . . K . . B : A . ",
"p : : B H . . 7 . . 7 7 . . 7 M . . 7 N . . 7 . . 7 O . B : A . ",
"p : : B P . . . 7 7 7 7 . . 7 Q . . 7 7 . . 7 . . 7 R . B : A . ",
"p : : B S . . . . T 7 7 . . 7 Q . . 7 7 . . 7 . . U V . B : A . ",
"p : : B 7 W X . . . 7 7 . . 7 Q . . 7 7 . . 7 . . . . . B : A . ",
"p : : B 7 7 7 Y . . Z 7 . . 7 Q . . 7 7 . . 7 . . . . ` B : A . ",
"p : : B  .. . 7 ... +.7 . . 7 @.. . 7 #.. . 7 . . 7 7 7 B : A . ",
"p : : B $.. . %.. . 7 7 . . 7 &.* . . . . *.7 . . 7 7 7 B : A . ",
"p : : B =.. . . . . 7 7 . . 7 7 -.. . . . 7 7 . . 7 7 7 B : A . ",
";.>.: q 7 r . . . ,.7 7 . . 7 7 '.).. . !.7 7 . . 7 7 7 z : A . ",
". o : l } 7 7 n 7 7 7 7 7 7 7 7 7 7 C ~.7 7 7 7 7 7 {.m l : o . ",
". . j 4 ].^.7 7 7 7 7 7 7 7 7 7 7 7 7 7 7 7 7 7 7 7 /.: 4 j . . ",
". . . c : (._.7 7 7 7 7 7 7 7 7 7 7 7 7 7 7 7 7 e d 5 : c . . . ",
". . . . b : [ :.7 7 7 7 7 7 7 7 7 7 7 7 7 7 7 7 f : : b . . . . ",
". . . . 2 > : 9 0 7 7 7 7 7 7 7 7 7 7 7 7 7 7 <.9 : > 2 . . . . ",
". . . . . 2 3 4 5 8 7 7 7 7 7 7 7 7 7 7 7 {.[.5 }.3 2 . . . . . ",
". . . . . . . < : |.1.7 7 7 7 7 7 7 7 7 2.3.: : 4.. . . . . . . ",
". . . . . . . . _ : ].5.5.5.5.5.5.5.5.5.6.: : _ . . . . . . . . ",
". . . . . . . . ; 7.: : : : : : : : : : : : 7.; . . . . . . . . ",
". . . . . . . . . ; 8.8.8.8.8.8.8.8.8.8.8.8.; . . . . . . . . . "};
